<?xml version="1.0" encoding="iso-8859-1"?>
<!-- Generator: Adobe Illustrator 18.0.0, SVG Export Plug-In . SVG Version: 6.00 Build 0)  -->
<!DOCTYPE svg PUBLIC "-//W3C//DTD SVG 1.1//EN" "http://www.w3.org/Graphics/SVG/1.1/DTD/svg11.dtd">
<svg version="1.1" id="Capa_1" xmlns="http://www.w3.org/2000/svg" xmlns:xlink="http://www.w3.org/1999/xlink" x="0px" y="0px"
	 viewBox="0 0 485.697 485.697" style="enable-background:new 0 0 485.697 485.697;" xml:space="preserve">
<g>
	<path d="M242.849,460.944c-61.399,0-122.571-35.448-152.219-88.207c-1.149-2.047-3.741-2.773-5.787-1.623
		c-2.046,1.15-2.773,3.741-1.623,5.787c31.106,55.353,95.256,92.543,159.629,92.543c2.347,0,4.25-1.903,4.25-4.25
		C247.099,462.847,245.196,460.944,242.849,460.944z"/>
	<path d="M72.911,306.944c0-2.347-1.903-4.25-4.25-4.25c-2.347,0-4.25,1.903-4.25,4.25c0,15.528,2.665,30.994,7.921,45.968
		c0.614,1.749,2.256,2.843,4.01,2.843c0.467,0,0.942-0.078,1.408-0.241c2.215-0.778,3.38-3.203,2.603-5.418
		C75.415,336.029,72.911,321.511,72.911,306.944z"/>
	<g>
		<path d="M271.741,57.8c0-15.932-12.961-28.893-28.892-28.893c-15.931,0-28.892,12.961-28.892,28.893
			c0,15.932,12.961,28.893,28.892,28.893C258.78,86.693,271.741,73.732,271.741,57.8z M222.457,57.8
			c0-11.245,9.148-20.393,20.392-20.393s20.392,9.148,20.392,20.393s-9.148,20.393-20.392,20.393S222.457,69.045,222.457,57.8z"/>
		<path d="M434.918,223.951c-1.047,0-2.058,0.387-2.837,1.085l-88.398,79.253c-1.311,1.176-1.762,3.039-1.132,4.684
			c0.629,1.645,2.208,2.731,3.969,2.731h41.955c-2.649,60.993-61.904,109.202-118.629,121.145V180.513h45.116v15.021
			c0,2.347,1.903,4.25,4.25,4.25h24.643c2.347,0,4.25-1.903,4.25-4.25v-69.505c0-2.347-1.903-4.25-4.25-4.25h-24.643
			c-2.347,0-4.25,1.903-4.25,4.25v15.022h-45.116v-32.165c18.303-9.712,30.803-28.963,30.803-51.086c0-31.871-25.929-57.8-57.8-57.8
			s-57.8,25.929-57.8,57.8c0,22.123,12.5,41.374,30.803,51.086v32.165h-40.814v-15.022c0-2.347-1.903-4.25-4.25-4.25h-24.643
			c-2.347,0-4.25,1.903-4.25,4.25v69.505c0,2.347,1.903,4.25,4.25,4.25h24.643c2.347,0,4.25-1.903,4.25-4.25v-15.021h40.814v252.338
			C159.127,420.94,99.872,372.736,97.223,311.704h41.946c1.761,0,3.34-1.086,3.969-2.731c0.629-1.645,0.179-3.508-1.132-4.684
			l-88.398-79.253c-1.748-1.566-4.434-1.42-6.002,0.328c-0.648,0.723-0.987,1.608-1.056,2.507c-0.016,0.102-0.029,0.208-0.029,0.33
			v78.743c0,46.904,21.786,91.86,61.345,126.587c37.766,33.153,86.965,52.167,134.984,52.167c48.018,0,97.218-19.014,134.983-52.167
			c39.559-34.727,61.344-79.683,61.344-126.587v-78.743C439.177,225.854,437.265,223.951,434.918,223.951z M193.549,57.8
			c0-27.184,22.116-49.3,49.3-49.3s49.3,22.116,49.3,49.3s-22.116,49.3-49.3,49.3S193.549,84.984,193.549,57.8z M261.346,112.547
			v28.504h-36.994v-28.504c5.812,1.969,12.028,3.053,18.497,3.053C249.317,115.601,255.534,114.517,261.346,112.547z
			 M170.788,172.013c-2.347,0-4.25,1.903-4.25,4.25v15.021h-16.143v-27.372h95.716c2.347,0,4.25-1.903,4.25-4.25
			c0-2.347-1.903-4.25-4.25-4.25h-95.716v-25.133h16.143v15.022c0,2.347,1.903,4.25,4.25,4.25h148.424c2.347,0,4.25-1.903,4.25-4.25
			v-15.022h16.143v61.005h-16.143v-15.021c0-2.347-1.903-4.25-4.25-4.25H170.788z M430.677,306.943
			c0,89.105-89.525,170.254-187.828,170.254c-98.303,0-187.829-81.149-187.829-170.254v-69.225l73.042,65.485H92.88
			c-2.347,0-4.25,1.903-4.25,4.25c0,31.547,14.409,62.972,40.574,88.485c24.286,23.682,57.153,40.536,90.174,46.241
			c0.241,0.042,0.483,0.062,0.724,0.062c0.994,0,1.965-0.349,2.737-0.999c0.959-0.808,1.513-1.997,1.513-3.251V180.513h36.994
			v257.479c0,1.254,0.554,2.444,1.514,3.251c0.96,0.808,2.227,1.152,3.462,0.936c33.011-5.722,65.873-22.584,90.16-46.262
			c26.172-25.516,40.586-56.933,40.586-88.463c0-2.347-1.903-4.25-4.25-4.25h-35.191l73.05-65.493V306.943z"/>
	</g>
</g>
<g>
</g>
<g>
</g>
<g>
</g>
<g>
</g>
<g>
</g>
<g>
</g>
<g>
</g>
<g>
</g>
<g>
</g>
<g>
</g>
<g>
</g>
<g>
</g>
<g>
</g>
<g>
</g>
<g>
</g>
</svg>
